Coordinates
version=1
nRows=31
nColumns=38
inDegrees=no

Units are S.I. units (second, meters, Newtons, ...)
If the header above contains a line with 'inDegrees', this indicates whether rotational values are in degrees (yes) or radians (no).

endheader
time	pelvis_tilt	pelvis_list	pelvis_rotation	pelvis_tx	pelvis_ty	pelvis_tz	hip_flexion_r	hip_adduction_r	hip_rotation_r	knee_angle_r	ankle_angle_r	subtalar_angle_r	mtp_angle_r	hip_flexion_l	hip_adduction_l	hip_rotation_l	knee_angle_l	ankle_angle_l	subtalar_angle_l	mtp_angle_l	lumbar_extension	lumbar_bending	lumbar_rotation	arm_flex_r	arm_add_r	arm_rot_r	elbow_flex_r	pro_sup_r	wrist_flex_r	wrist_dev_r	arm_flex_l	arm_add_l	arm_rot_l	elbow_flex_l	pro_sup_l	wrist_flex_l	wrist_dev_l
0.68	3.09087	1.3767	-1.66021	0.823015	-0.319388	0.960454	0.277221	-0.175184	-0.0319557	1.32289	-0.0582857	0	0	-0.00247059	-0.00043883	-0.665637	0.376788	0.102484	0	0	-0.317026	-0.0442736	0.150457	0.19851	-0.323631	1.00868	0.34491	0.728713	0	0	0.15334	-0.133774	0.0763508	0.197328	1.5708	0	0
0.69	3.11135	1.36426	-1.67281	0.823085	-0.31282	0.963797	0.278978	-0.172983	-0.0295715	1.30642	-0.0381905	0	0	-0.0809568	0.0371566	-0.423701	0.220386	0.0192611	0	0	-0.336256	-0.0522071	0.143279	0.20424	-0.311254	0.971522	0.331045	0.778338	0	0	0.160914	-0.140158	0.0945832	0.202571	1.5708	0	0
0.7	3.08924	1.36379	-1.64211	0.822014	-0.305221	0.96472	0.29121	-0.164826	-0.0342207	1.28928	-0.0161323	0	0	-0.0932341	0.0344746	-0.417111	0.214166	0.0221588	0	0	-0.33935	-0.0459502	0.136815	0.207875	-0.31169	0.976306	0.331484	0.772617	0	0	0.165962	-0.139908	0.0908509	0.199119	1.5708	0	0
0.71	3.1078	1.36563	-1.64938	0.821327	-0.296451	0.964564	0.30555	-0.158981	-0.028751	1.27499	0.0104983	0	0	-0.104949	0.040356	-0.408203	0.204997	0.0252952	0	0	-0.335383	-0.0486819	0.126653	0.207105	-0.308938	0.979075	0.331425	0.76766	0	0	0.167753	-0.143792	0.089912	0.19653	1.5708	0	0
0.72	3.10577	1.36352	-1.63691	0.819064	-0.28842	0.965447	0.304618	-0.167025	-0.0343718	1.22324	-0.0908704	0	0	-0.12178	0.0452313	-0.397152	0.192188	0.0236125	0	0	-0.338876	-0.044119	0.117717	0.209147	-0.31271	0.980048	0.334474	0.763682	0	0	0.170986	-0.142252	0.0903012	0.195271	1.5708	0	0
0.73	3.08408	1.36145	-1.60683	0.817864	-0.280644	0.9663	0.30999	-0.162161	-0.0465732	1.19393	-0.0751575	0	0	-0.137897	0.0430962	-0.389303	0.182403	0.0250125	0	0	-0.34286	-0.0372529	0.112224	0.211149	-0.315411	0.980023	0.337884	0.760651	0	0	0.175421	-0.142011	0.0921612	0.193514	1.5708	0	0
0.74	3.06425	1.3598	-1.57952	0.816739	-0.272853	0.967016	0.314577	-0.157581	-0.0575128	1.1613	-0.05983	0	0	-0.153587	0.0411605	-0.382577	0.172553	0.0269878	0	0	-0.346061	-0.0309141	0.107947	0.212927	-0.317425	0.979659	0.33932	0.758151	0	0	0.180211	-0.14128	0.0950071	0.190345	1.5708	0	0
0.75	3.04595	1.35798	-1.55423	0.815656	-0.265054	0.967652	0.31773	-0.15388	-0.0725687	1.12498	-0.0479866	0	0	-0.169771	0.0394781	-0.375729	0.161966	0.0285679	0	0	-0.349267	-0.0249188	0.104513	0.214621	-0.318868	0.97983	0.339176	0.756235	0	0	0.185075	-0.140089	0.0980982	0.18692	1.5708	0	0
0.76	3.03024	1.35594	-1.53197	0.814669	-0.2574	0.968238	0.318933	-0.149951	-0.0862077	1.08501	-0.0386666	0	0	-0.186248	0.0379267	-0.368646	0.150983	0.0293196	0	0	-0.353105	-0.0195981	0.101608	0.216614	-0.320451	0.980043	0.339767	0.754426	0	0	0.189885	-0.138886	0.101182	0.184929	1.5708	0	0
0.77	3.01543	1.35346	-1.51033	0.813628	-0.249675	0.968745	0.31755	-0.146926	-0.102139	1.04185	-0.0293569	0	0	-0.203547	0.036428	-0.36052	0.139308	0.0297635	0	0	-0.357301	-0.0141712	0.0985378	0.218294	-0.322165	0.979698	0.340916	0.752509	0	0	0.193733	-0.137643	0.10432	0.184977	1.5708	0	0
0.78	3.00029	1.34956	-1.48816	0.812557	-0.241841	0.969326	0.312199	-0.144209	-0.121307	0.995362	-0.0188964	0	0	-0.223815	0.0350492	-0.349156	0.124875	0.0284436	0	0	-0.362977	-0.0086148	0.0965646	0.217805	-0.321169	0.959397	0.33786	0.777824	0	0	0.192288	-0.140374	0.139208	0.199572	1.5708	0	0
0.79	2.98839	1.34756	-1.47041	0.811684	-0.234118	0.969645	0.308245	-0.14149	-0.140757	0.947036	-0.014827	0	0	-0.240139	0.0334614	-0.341675	0.114312	0.0296265	0	0	-0.367078	-0.00390193	0.094456	0.21974	-0.322607	0.965324	0.338205	0.7704	0	0	0.199946	-0.136406	0.128008	0.190696	1.5708	0	0
0.8	2.97858	1.34546	-1.45479	0.810915	-0.226541	0.969871	0.302385	-0.138354	-0.160988	0.89519	-0.013951	0	0	-0.255853	0.0318267	-0.334424	0.104787	0.0311145	0	0	-0.371874	0.000307372	0.092621	0.222092	-0.323882	0.974402	0.338039	0.765348	0	0	0.207708	-0.133433	0.124058	0.183755	1.5708	0	0
0.81	2.96979	1.3442	-1.44052	0.81029	-0.219045	0.969869	0.296295	-0.13477	-0.181707	0.842173	-0.0095055	0	0	-0.269731	0.0300267	-0.328163	0.0969833	0.0334588	0	0	-0.376062	0.00402988	0.0908205	0.224754	-0.3245	0.979851	0.337966	0.759319	0	0	0.21495	-0.131294	0.123713	0.178559	1.5708	0	0
0.82	2.95992	1.34309	-1.42536	0.80973	-0.211461	0.969744	0.288741	-0.130497	-0.204636	0.786428	-0.00603058	0	0	-0.28353	0.0279805	-0.32193	0.0889286	0.0359085	0	0	-0.379921	0.00802504	0.0893363	0.2268	-0.324841	0.979233	0.338415	0.750711	0	0	0.221233	-0.129585	0.12341	0.174944	1.5708	0	0
0.83	2.9514	1.3431	-1.41154	0.809316	-0.203797	0.969438	0.281158	-0.125661	-0.228222	0.729128	-0.00181418	0	0	-0.295444	0.0258679	-0.317501	0.0823199	0.0389377	0	0	-0.382577	0.0113629	0.0876774	0.228066	-0.324574	0.976403	0.338408	0.745667	0	0	0.226437	-0.128777	0.123611	0.17308	1.5708	0	0
0.84	2.94693	1.34477	-1.40343	0.809199	-0.196227	0.968799	0.276109	-0.120479	-0.249049	0.673383	0.00401446	0	0	-0.304769	0.0248763	-0.315388	0.0776427	0.0425818	0	0	-0.384037	0.0127473	0.0875671	0.22939	-0.324016	0.974492	0.33776	0.74232	0	0	0.231566	-0.128385	0.124759	0.171898	1.5708	0	0
0.85	2.94349	1.34648	-1.39681	0.809277	-0.188719	0.968025	0.270408	-0.113841	-0.267624	0.616877	0.00887693	0	0	-0.313452	0.0238002	-0.313445	0.0740429	0.0462361	0	0	-0.385903	0.0135678	0.0879921	0.231026	-0.323136	0.973266	0.33625	0.739147	0	0	0.236693	-0.128366	0.126646	0.171221	1.5708	0	0
0.86	2.94097	1.34859	-1.39174	0.809567	-0.181168	0.967128	0.264484	-0.105858	-0.283549	0.559763	0.0119002	0	0	-0.321271	0.0227456	-0.311044	0.0715394	0.0496181	0	0	-0.387277	0.0138303	0.088534	0.232379	-0.322533	0.971919	0.335889	0.736816	0	0	0.240978	-0.129068	0.129462	0.172138	1.5708	0	0
0.87	2.93547	1.35065	-1.38413	0.810025	-0.173552	0.966175	0.257376	-0.0952796	-0.29659	0.501328	0.0175547	0	0	-0.328516	0.0205197	-0.309485	0.0705213	0.0549489	0	0	-0.388523	0.0141865	0.0905173	0.231392	-0.319018	0.945976	0.331727	0.765656	0	0	0.238755	-0.135307	0.171559	0.190368	1.5708	0	0
0.88	2.93036	1.35481	-1.3779	0.810613	-0.165915	0.964941	0.253266	-0.084127	-0.305939	0.44517	0.0230537	0	0	-0.332238	0.018567	-0.310752	0.0722524	0.0626572	0	0	-0.387662	0.0142857	0.0916164	0.233007	-0.319086	0.948679	0.333036	0.754869	0	0	0.245818	-0.134119	0.157731	0.183179	1.5708	0	0
0.89	2.92126	1.35831	-1.36836	0.811341	-0.15825	0.963755	0.246716	-0.0697503	-0.310242	0.38625	0.024766	0	0	-0.335581	0.0151363	-0.315038	0.0763402	0.0730545	0	0	-0.387354	0.0153266	0.0934666	0.235341	-0.320633	0.961836	0.336247	0.728399	0	0	0.251831	-0.133888	0.150753	0.178649	1.5708	0	0
0.9	2.91266	1.36235	-1.35947	0.812114	-0.150482	0.962489	0.239667	-0.0546339	-0.310503	0.327312	0.0238229	0	0	-0.337876	0.0116738	-0.319611	0.0816219	0.0831565	0	0	-0.386298	0.0160963	0.0956227	0.23659	-0.320119	0.961649	0.336128	0.727087	0	0	0.255393	-0.135338	0.155207	0.179891	1.5708	0	0
0.91	2.90095	1.36589	-1.3475	0.812924	-0.142539	0.961212	0.230284	-0.0377493	-0.306036	0.267365	0.020039	0	0	-0.340662	0.00734321	-0.322983	0.0871457	0.0923548	0	0	-0.385193	0.0177826	0.0979595	0.237525	-0.319495	0.96175	0.33561	0.726261	0	0	0.25858	-0.136578	0.159651	0.180785	1.5708	0	0
0.92	2.887	1.36888	-1.33344	0.813806	-0.134399	0.959932	0.218799	-0.0198497	-0.295845	0.208371	0.0208947	0	0	-0.344484	0.00264905	-0.325114	0.0920141	0.100791	0	0	-0.384108	0.020087	0.100434	0.238043	-0.31864	0.961818	0.334719	0.725583	0	0	0.261266	-0.137724	0.164527	0.181369	1.5708	0	0
0.93	2.8749	1.37149	-1.32054	0.814639	-0.126056	0.95865	0.20582	-0.00308084	-0.28368	0.151492	0.0169473	0	0	-0.349118	-0.00166703	-0.326293	0.0966573	0.109129	0	0	-0.383129	0.0224557	0.102168	0.238217	-0.317573	0.961626	0.333543	0.725341	0	0	0.263577	-0.138814	0.170239	0.18176	1.5708	0	0
0.94	2.86714	1.37463	-1.31213	0.815417	-0.117393	0.95728	0.193929	0.0111458	-0.273189	0.100774	0.0100246	0	0	-0.353985	-0.00457578	-0.328499	0.100546	0.116229	0	0	-0.381002	0.0240996	0.103851	0.237291	-0.316496	0.96058	0.332075	0.726207	0	0	0.264818	-0.139901	0.176329	0.183037	1.5708	0	0
0.95	2.86473	1.37815	-1.3085	0.816015	-0.108516	0.955852	0.185263	0.0218578	-0.269182	0.0617358	0.00428349	0	0	-0.358648	-0.00640043	-0.331042	0.105005	0.123866	0	0	-0.378221	0.0251364	0.104513	0.235727	-0.315656	0.958546	0.330948	0.72864	0	0	0.264735	-0.141201	0.183434	0.185913	1.5708	0	0
0.96	2.86334	1.38149	-1.30545	0.816512	-0.0995362	0.954411	0.180871	0.0302241	-0.272956	0.0370113	0.00226169	0	0	-0.363578	-0.00796259	-0.332356	0.109217	0.12903	0	0	-0.375493	0.0264462	0.10431	0.234243	-0.314855	0.955405	0.329795	0.732394	0	0	0.263569	-0.142862	0.193264	0.19009	1.5708	0	0
0.97	2.85991	1.38317	-1.29972	0.816926	-0.0903753	0.953166	0.175667	0.0387422	-0.277849	0.0190077	-0.000274349	0	0	-0.370042	-0.0106679	-0.33402	0.113746	0.13329	0	0	-0.37405	0.0295918	0.101997	0.235642	-0.319351	0.988179	0.336401	0.684121	0	0	0.268839	-0.138379	0.159015	0.174818	1.5708	0	0
0.98	2.86022	1.38506	-1.29745	0.817271	-0.0811227	0.951957	0.174641	0.0445146	-0.288635	0.0146256	0.00206954	0	0	-0.376364	-0.0126113	-0.335471	0.118354	0.137059	0	0	-0.372682	0.0317489	0.100486	0.233293	-0.317115	0.970858	0.332477	0.709811	0	0	0.267371	-0.139484	0.164682	0.178254	1.5708	0	0
